<?xml version="1.0" encoding="iso-8859-1"?>
<!-- Uploaded to: SVG Repo, www.svgrepo.com, Generator: SVG Repo Mixer Tools -->
<svg xmlns="http://www.w3.org/2000/svg" xmlns:xlink="http://www.w3.org/1999/xlink" version="1.1" id="Capa_1"  viewBox="0 0 455 455" xml:space="preserve" width="512" height="512">
<g>
	<polygon style="fill:#6DA8D6;" points="113.75,273.153 113.75,455 227.5,455 237.5,342.625 227.5,230.25  "/>
	<polygon style="fill:#185F8D;" points="227.5,230.25 227.5,455 341.25,455 341.25,273.153  "/>
	<polygon style="fill:#082947;" points="227.5,0 180.104,113.75 227.5,133.75 274.896,113.75  "/>
	<path style="fill:#FFCC75;" d="M113.75,273.153c12.772,7.363,27.943,11.648,44.236,11.648c29.281,0,54.966-13.799,69.514-34.552   c14.548,20.753,40.233,34.552,69.514,34.552c16.293,0,31.465-4.286,44.236-11.648V273l-66.354-159.25h-94.792L113.75,273V273.153z"/>
</g>















</svg>