<?xml version="1.0" encoding="iso-8859-1"?>
<!-- Uploaded to: SVG Repo, www.svgrepo.com, Generator: SVG Repo Mixer Tools -->
<svg xmlns="http://www.w3.org/2000/svg" xmlns:xlink="http://www.w3.org/1999/xlink" version="1.1" id="Capa_1"  viewBox="0 0 455 455" xml:space="preserve" width="512" height="512">
<g>
	<path style="fill:#FFCC75;" d="M317.5,15v75h-30V30h-120v60h-30V15c0-8.25,6.75-15,15-15h150C310.75,0,317.5,6.75,317.5,15z"/>
	<polygon style="fill:#185F8D;" points="11.43,215.95 11.43,375 91.43,455 366.43,455 446.43,375 446.43,215.95  "/>
	<path style="fill:#6DA8D6;" d="M425,70H30C13.5,70,0,83.5,0,100v112.8c3.8,1.431,7.61,2.83,11.43,4.181   c60.66,21.579,122.48,33.77,186.07,36.579l60-0.14c73.608-3.574,137.057-18.73,188.93-37.47c2.86-1.021,5.72-2.08,8.57-3.15V100   C455,83.5,441.5,70,425,70z"/>
	<polygon style="fill:#FF6E1D;" points="257.5,274.19 257.5,304.19 197.5,304.19 197.5,274.19 226.07,254.19  "/>
	<rect x="197.5" y="214.19" style="fill:#FFCC75;" width="60" height="60"/>
	<circle style="fill:#185F8D;" cx="75.5" cy="115.477" r="7.5"/>
	<circle style="fill:#185F8D;" cx="45.499" cy="145.477" r="7.5"/>
	<path style="fill:#FFCC75;" d="M91.43,455h-50c-16.5,0-30-13.5-30-30v-50C55.61,375,91.43,410.82,91.43,455z"/>
	<path style="fill:#FFCC75;" d="M446.43,375v50c0,16.5-13.5,30-30,30h-50C366.43,410.82,402.25,375,446.43,375z"/>
</g>















</svg>