<?xml version="1.0" encoding="iso-8859-1"?>
<!-- Uploaded to: SVG Repo, www.svgrepo.com, Generator: SVG Repo Mixer Tools -->
<svg xmlns="http://www.w3.org/2000/svg" xmlns:xlink="http://www.w3.org/1999/xlink" version="1.1" id="Capa_1"  viewBox="0 0 455 455" xml:space="preserve" width="512" height="512">
<polygon style="fill:#F2484B;" points="187.384,109.605 141.423,141.424 109.604,187.385 306.545,384.326 352.507,352.507   384.326,306.546 "/>
<polygon style="fill:#185F8D;" points="267.615,109.605 70.674,306.546 102.493,352.507 148.454,384.326 345.395,187.385   315.762,143.609 "/>
<polygon style="fill:#6DA8D6;" points="127.244,405.536 77.78,455 0,377.22 49.464,327.756 95.426,359.575 "/>
<polygon style="fill:#185F8D;" points="440.86,0 345.4,45.96 363.078,91.922 409.04,109.6 455,14.14 "/>
<polygon style="fill:#6DA8D6;" points="338.33,38.89 288.835,88.395 320.654,134.355 366.616,166.174 416.11,116.67 "/>
<polygon style="fill:#F2484B;" points="14.14,0 0,14.14 45.96,109.6 91.922,91.922 109.6,45.96 "/>
<path style="fill:#FF6E1D;" d="M116.67,38.89l-77.78,77.78c0,0,49.495,49.504,49.505,49.504l45.961-31.819l31.819-45.961  L116.67,38.89z"/>
<polygon style="fill:#FF6E1D;" points="455,377.22 377.22,455 327.756,405.536 359.574,359.575 405.536,327.756 "/>
<rect x="82.891" y="122.892" transform="matrix(0.7071 -0.7071 0.7071 0.7071 -57.1157 137.8895)" style="fill:#F2EBD9;" width="109.998" height="29.995"/>
<rect x="301.042" y="341.043" transform="matrix(0.7071 -0.7071 0.7071 0.7071 -147.4769 356.0406)" style="fill:#F2EBD9;" width="109.998" height="29.995"/>
<polygon style="fill:#F2EBD9;" points="366.616,166.175 345.396,187.385 267.616,109.605 288.836,88.395 "/>
<rect x="83.962" y="301.042" transform="matrix(0.7071 -0.7071 0.7071 0.7071 -222.7742 174.2568)" style="fill:#F2EBD9;" width="29.995" height="109.998"/>















</svg>