<?xml version="1.0" encoding="iso-8859-1"?>
<!-- Uploaded to: SVG Repo, www.svgrepo.com, Generator: SVG Repo Mixer Tools -->
<svg xmlns="http://www.w3.org/2000/svg" xmlns:xlink="http://www.w3.org/1999/xlink" version="1.1" id="Capa_1"  viewBox="0 0 454.5 454.5" xml:space="preserve" width="512" height="512">
<g>
	<path style="fill:#C1E8E6;" d="M378.58,394.75l-59.83-10v-72h90v52.55C408.75,381.84,395.12,394.75,378.58,394.75z"/>
	<path style="fill:#C1E8E6;" d="M378.58,0l-59.83,10v72h90V29.45C408.75,12.91,395.12,0,378.58,0z"/>
	<path style="fill:#F2EBD9;" d="M348.75,364.55V29.95c0-16.5,13.34-29.89,29.83-29.95H75.65c-16.54,0-29.9,12.91-29.9,29.45v335.1   c0,16.54,13.36,30.45,29.9,30.45l302.93-0.25C362.09,394.69,348.75,381.05,348.75,364.55z"/>
	<polygon style="fill:#F2484B;" points="156.75,329.5 156.75,454.5 196.75,434.5 236.75,454.5 236.75,329.5  "/>
	<path style="fill:#6DA8D6;" d="M297.25,159.5h-200c-4.142,0-7.5-3.358-7.5-7.5s3.358-7.5,7.5-7.5h200c4.142,0,7.5,3.358,7.5,7.5   S301.392,159.5,297.25,159.5z"/>
	<path style="fill:#6DA8D6;" d="M267.25,189.5h-140c-4.142,0-7.5-3.358-7.5-7.5s3.358-7.5,7.5-7.5h140c4.142,0,7.5,3.358,7.5,7.5   S271.392,189.5,267.25,189.5z"/>
	<path style="fill:#6DA8D6;" d="M297.25,129.5h-30c-4.142,0-7.5-3.358-7.5-7.5s3.358-7.5,7.5-7.5h30c4.142,0,7.5,3.358,7.5,7.5   S301.392,129.5,297.25,129.5z"/>
	<path style="fill:#6DA8D6;" d="M237.25,129.5h-140c-4.142,0-7.5-3.358-7.5-7.5s3.358-7.5,7.5-7.5h140c4.142,0,7.5,3.358,7.5,7.5   S241.392,129.5,237.25,129.5z"/>
	<path style="fill:#6DA8D6;" d="M273.021,77.566l-23.33-30c-1.421-1.827-3.606-2.896-5.92-2.896s-4.5,1.069-5.92,2.896   l-17.41,22.387l-17.41-22.387c-1.421-1.827-3.616-2.896-5.93-2.896c-2.314,0-4.509,1.069-5.93,2.896l-17.41,22.387l-17.41-22.387   c-1.421-1.827-3.606-2.896-5.92-2.896s-4.5,1.069-5.92,2.896l-23.33,30c-2.543,3.27-1.954,7.981,1.316,10.524   c3.27,2.543,7.982,1.953,10.524-1.316l17.41-22.387l17.41,22.387c1.421,1.827,3.606,2.896,5.92,2.896s4.5-1.069,5.92-2.896   L197.1,64.386l17.419,22.388c1.421,1.827,3.606,2.896,5.92,2.896s4.5-1.069,5.92-2.896l17.41-22.387l17.41,22.387   c2.542,3.27,7.254,3.86,10.524,1.316C274.974,85.547,275.563,80.835,273.021,77.566z"/>
	<path style="fill:#BD1515;" d="M197.1,234.85c33.14,0,60,26.86,60,60c0,33.12-26.86,60-60,60s-60-26.88-60-60   C137.1,261.71,163.96,234.85,197.1,234.85z"/>
	<path style="fill:#F2484B;" d="M197.1,264.85c16.57,0,30,13.43,30,30c0,16.56-13.43,30-30,30s-30-13.44-30-30   C167.1,278.28,180.53,264.85,197.1,264.85z"/>
</g>















</svg>