<?xml version="1.0" encoding="iso-8859-1"?>
<!-- Uploaded to: SVG Repo, www.svgrepo.com, Generator: SVG Repo Mixer Tools -->
<svg xmlns="http://www.w3.org/2000/svg" xmlns:xlink="http://www.w3.org/1999/xlink" version="1.1" id="Capa_1"  viewBox="0 0 460 460" xml:space="preserve" width="512" height="512">
<g>
	<path style="fill:#FFCC75;" d="M313.5,69.32h-167c-21.76,21.53-35.25,51.4-35.25,84.43c0,40.88,0,182.49,0,184.32h237.5   c0-1.62,0-119.23,0-184.32C348.75,120.72,335.26,90.85,313.5,69.32z"/>
	<path style="fill:#C1E8E6;" d="M230,282.5c33.96,0,65.69,9.54,92.66,26.08c0,0.01-92.66,122.67-92.66,122.67l-92.66-122.66   C164.31,292.04,196.04,282.5,230,282.5z"/>
	<polygon style="fill:#082947;" points="215,309 205,445.5 255,445.5 245,309 230,299  "/>
	<path style="fill:#274B6D;" d="M245,283.151c-4.947-0.414-9.945-0.651-15-0.651s-10.053,0.237-15,0.651V309h30V283.151z"/>
	<path style="fill:#F2EBD9;" d="M313.5,123.99L230,52l-83.5,71.99c-3.4,9.4-5.25,19.18-5.25,29.76c0,49.02,39.73,88.75,88.75,88.75   s88.75-39.73,88.75-88.75C318.75,143.17,316.9,133.39,313.5,123.99z"/>
	<path style="fill:#6DA8D6;" d="M146.5,15v108.99c10.67-5.93,22.94-9.19,35.99-9.19c18.05,0,34.61,6.47,47.51,17.2   c12.9-10.73,29.46-17.2,47.51-17.2c13.05,0,25.32,3.26,35.99,9.19V15H146.5z"/>
	<path style="fill:#185F8D;" d="M322.664,308.586L230,401.25l-92.664-92.664C86.449,339.795,52.5,395.93,52.5,460h355   C407.5,395.93,373.551,339.795,322.664,308.586z"/>
	<path style="fill:#185F8D;" d="M402.5,22.5h-345c-4.142,0-7.5-3.357-7.5-7.5s3.358-7.5,7.5-7.5h345c4.142,0,7.5,3.357,7.5,7.5   S406.642,22.5,402.5,22.5z"/>
	<path style="fill:#274B6D;" d="M401.142,178.597l-10.91-26.339V7.5c0-4.143-3.358-7.5-7.5-7.5s-7.5,3.357-7.5,7.5v144.758   l-10.91,26.339c-1.585,3.827,0.232,8.214,4.059,9.799c3.828,1.588,8.214-0.232,9.799-4.059l4.551-10.988l4.551,10.988   c1.196,2.889,3.989,4.632,6.932,4.632c0.957,0,1.929-0.185,2.867-0.573C400.91,186.811,402.727,182.424,401.142,178.597z"/>
</g>















</svg>