<?xml version="1.0" encoding="iso-8859-1"?>
<!-- Uploaded to: SVG Repo, www.svgrepo.com, Generator: SVG Repo Mixer Tools -->
<svg xmlns="http://www.w3.org/2000/svg" xmlns:xlink="http://www.w3.org/1999/xlink" version="1.1" id="Capa_1"  viewBox="0 0 455 455" xml:space="preserve" width="512" height="512">
<g>
	<rect x="46.78" style="fill:#F2EBD9;" width="361.44" height="375"/>
	<polygon style="fill:#98D9D5;" points="76.78,30 76.78,345 97.89,345 227.5,325 357.11,345 378.22,345 378.22,30  "/>
	<path style="fill:#6DA8D6;" d="M181.5,269.58c-37.12,12.64-67.35,40.14-83.61,75.42h103.15L181.5,269.58z"/>
	<path style="fill:#6DA8D6;" d="M273.5,269.58L253.96,345h103.15C340.85,309.73,310.62,282.22,273.5,269.58z"/>
	<path style="fill:#FFFFFF;" d="M227.5,262c-16.1,0-31.57,2.67-46,7.58v37.79c0,15.56,7.72,29.3,19.54,37.63h52.92   c11.82-8.33,19.54-22.07,19.54-37.63v-37.79C259.06,264.66,243.59,262,227.5,262z"/>
	<polygon style="fill:#082947;" points="244.064,345 239.542,283.275 227.5,275.247 215.458,283.275 210.936,345  "/>
	<path style="fill:#274B6D;" d="M239.542,262.523C235.57,262.19,231.558,262,227.5,262s-8.07,0.19-12.042,0.523v20.752h24.085   V262.523z"/>
	<path style="fill:#F2EBD9;" d="M227.5,70c44.74,0,81,36.26,81,81s-36.26,81-81,81s-81-36.26-81-81S182.76,70,227.5,70z"/>
	<path style="fill:#185F8D;" d="M400.718,415H54.282c-4.142,0-7.5-3.358-7.5-7.5s3.358-7.5,7.5-7.5h346.436   c4.142,0,7.5,3.358,7.5,7.5S404.86,415,400.718,415z"/>
	<path style="fill:#185F8D;" d="M227.5,455H54.282c-4.142,0-7.5-3.358-7.5-7.5s3.358-7.5,7.5-7.5H227.5c4.142,0,7.5,3.358,7.5,7.5   S231.642,455,227.5,455z"/>
	<path style="fill:#FFCC75;" d="M227.5,175.068c-10.512,0-19.939-6.653-23.459-16.557c-1.387-3.903,0.652-8.191,4.555-9.579   c3.902-1.385,8.191,0.652,9.579,4.555c1.399,3.936,5.146,6.58,9.325,6.58c4.178,0,7.926-2.645,9.325-6.581   c1.388-3.903,5.677-5.94,9.579-4.555c3.903,1.388,5.942,5.676,4.555,9.579C247.438,168.415,238.011,175.068,227.5,175.068z"/>
</g>















</svg>