<?xml version="1.0" standalone="no"?>
<!DOCTYPE svg PUBLIC "-//W3C//DTD SVG 20010904//EN"
 "http://www.w3.org/TR/2001/REC-SVG-20010904/DTD/svg10.dtd">
<svg version="1.0" xmlns="http://www.w3.org/2000/svg"
 width="830.000000pt" height="228.000000pt" viewBox="0 0 830.000000 228.000000"
 preserveAspectRatio="xMidYMid meet">

  <defs>
    <linearGradient id="gradient" gradientTransform="rotate(90)">
      <stop offset="10%" stop-color="blue" />
      <stop offset="100%" stop-color="red" />
    </linearGradient>
  </defs>
<g transform="translate(0.000000,228.000000) scale(0.100000,-0.100000)"
fill="url(#gradient)" stroke="none">
<path d="M1041 1562 c-80 -40 -90 -109 -26 -177 l34 -36 -32 -29 c-33 -30 -44
-34 -71 -24 -14 5 -14 8 -1 27 8 12 15 39 15 60 0 51 -52 107 -99 107 -92 0
-161 -98 -116 -166 l17 -26 -73 3 c-52 3 -74 0 -77 -9 -5 -17 40 -77 105 -137
53 -49 55 -52 68 -130 24 -139 20 -135 121 -135 82 0 86 -1 72 -17 -25 -29
-39 -61 -29 -67 5 -3 29 10 53 30 23 20 58 43 76 51 43 18 39 41 -10 57 -20 7
-53 27 -74 44 -21 18 -42 32 -46 32 -15 0 -8 -27 12 -53 l20 -25 -72 -4 c-40
-2 -74 -3 -76 -2 -1 1 -7 38 -12 82 -5 45 -14 91 -21 103 -6 13 -39 47 -72 78
l-60 56 119 6 c88 5 129 3 159 -7 53 -18 63 -17 70 5 22 69 170 71 247 4 15
-14 21 -13 50 5 65 41 116 46 204 22 44 -11 85 -25 92 -29 10 -6 -4 -24 -48
-67 l-61 -59 -14 -90 c-8 -49 -15 -93 -15 -97 0 -5 -39 -8 -86 -8 l-85 0 20
29 c43 60 22 67 -41 15 -23 -20 -55 -41 -70 -46 -17 -6 -28 -17 -28 -28 0 -11
10 -20 28 -25 15 -3 50 -24 78 -46 28 -21 54 -39 57 -39 14 0 6 24 -19 57
l-25 33 90 0 c85 0 92 2 106 24 9 14 23 64 30 112 l15 88 76 77 c72 73 85 99
47 99 -15 0 -143 39 -152 47 -2 1 8 14 22 27 21 19 27 35 27 66 0 50 -26 79
-93 105 -42 16 -51 16 -83 4 -73 -28 -107 -123 -65 -179 l21 -29 -29 -16 c-27
-14 -32 -13 -70 8 l-41 24 21 19 c48 43 63 110 33 153 -21 29 -95 61 -142 61
-20 0 -52 -8 -71 -18z m166 -44 c53 -49 5 -148 -72 -148 -44 0 -89 29 -111 71
-30 59 12 98 105 99 43 0 60 -5 78 -22z m278 -37 c42 -24 46 -71 10 -99 -39
-31 -110 -39 -135 -17 -38 34 -18 115 34 135 24 10 49 5 91 -19z m-583 -48
c49 -58 25 -106 -67 -129 -59 -15 -90 85 -39 125 33 26 86 27 106 4z"/>
<path d="M3017 1509 c-147 -23 -235 -160 -225 -349 6 -99 33 -162 95 -222 51
-50 102 -69 179 -69 112 0 187 50 241 161 25 49 27 66 28 160 0 89 -4 113 -23
155 -25 54 -81 118 -124 141 -68 35 -63 -1 6 -48 163 -109 146 -426 -28 -513
-127 -63 -273 -2 -321 136 -66 187 15 381 173 414 32 7 32 6 32 -33 0 -38 1
-40 44 -51 100 -25 150 -155 111 -287 -47 -158 -233 -159 -280 -1 -28 95 -15
183 36 241 48 55 36 91 -13 39 -44 -47 -61 -93 -66 -176 -5 -87 11 -146 56
-199 62 -73 174 -78 244 -11 57 54 84 190 58 285 -17 59 -70 121 -118 138 -39
13 -42 17 -42 52 0 20 -3 39 -7 41 -5 2 -29 0 -56 -4z"/>
<path d="M5447 1509 c-153 -23 -215 -190 -120 -317 39 -52 103 -85 103 -53 0
5 -16 19 -34 32 -49 34 -76 86 -76 148 0 100 53 150 168 159 75 5 152 -12 152
-33 0 -39 -9 -44 -56 -28 -67 23 -148 14 -182 -21 -22 -21 -27 -36 -27 -74 0
-62 28 -100 104 -141 75 -39 101 -71 101 -122 0 -31 -5 -42 -27 -56 -36 -24
-123 -21 -193 6 -30 11 -56 21 -58 21 -4 0 -27 -55 -36 -88 -6 -19 -2 -25 36
-41 132 -56 314 -37 368 39 48 67 45 181 -7 248 -28 38 -99 92 -120 92 -28 0
-11 -28 35 -57 116 -72 126 -246 17 -297 -50 -24 -138 -31 -206 -17 -74 16
-95 31 -81 58 11 20 12 20 64 2 119 -41 223 -14 242 63 7 30 5 45 -15 85 -20
39 -37 56 -94 90 -78 47 -96 67 -97 112 -2 79 100 100 223 47 12 -5 21 5 37
46 18 49 19 54 4 66 -35 27 -147 43 -225 31z"/>
<path d="M7289 1509 c-47 -7 -110 -41 -141 -75 -21 -25 -56 -93 -68 -133 -7
-26 -6 -31 8 -31 12 0 23 17 36 53 46 128 174 187 309 141 51 -17 54 -21 34
-48 -12 -16 -15 -16 -52 0 -50 21 -132 15 -167 -12 -38 -28 -68 -76 -82 -131
-12 -47 -13 -48 -53 -51 -23 -2 -43 -8 -46 -15 -8 -23 10 -133 30 -178 47
-105 133 -160 249 -160 65 0 143 20 177 45 17 14 17 16 -8 65 -14 28 -28 51
-31 51 -2 0 -24 -10 -47 -21 -101 -52 -199 -17 -232 81 -10 31 -22 50 -32 50
-21 0 -11 -50 22 -106 44 -75 145 -104 236 -67 40 15 43 15 55 -2 18 -25 11
-32 -48 -50 -174 -51 -313 40 -334 220 l-7 55 47 0 c45 0 46 0 46 33 0 18 12
57 27 86 44 89 129 112 218 60 l34 -20 25 44 c14 24 26 49 26 55 0 18 -78 54
-134 61 -28 4 -72 4 -97 0z"/>
<path d="M2220 1369 l0 -141 141 4 c140 3 141 3 165 31 30 35 32 94 5 128 -17
22 -28 24 -120 27 l-101 4 0 -56 c0 -42 4 -56 14 -56 10 0 16 13 18 38 l3 37
66 0 c52 0 72 -4 88 -19 26 -24 27 -50 1 -76 -18 -18 -33 -20 -135 -20 l-115
0 0 100 0 100 118 0 c176 -1 232 -33 232 -135 0 -38 -6 -60 -27 -90 -20 -29
-23 -40 -13 -43 48 -16 87 -105 75 -169 -8 -45 -59 -100 -103 -113 -20 -5 -92
-10 -160 -10 l-123 0 3 118 3 117 123 0 c123 0 124 0 148 -28 40 -47 28 -97
-27 -116 -18 -6 -61 -11 -95 -11 l-64 0 0 55 c0 42 -3 55 -15 55 -12 0 -15
-14 -15 -70 l0 -70 104 0 c88 0 107 3 129 20 59 47 56 143 -7 181 -27 16 -51
19 -173 19 l-143 0 0 -156 0 -156 158 4 c145 3 160 5 200 28 99 56 126 195 56
287 -25 33 -25 35 -10 74 44 110 -9 213 -124 238 -28 6 -103 11 -165 11 l-115
0 0 -141z"/>
<path d="M3635 1498 c-39 -106 -135 -371 -135 -374 0 -2 70 -4 156 -4 86 0
154 4 152 8 -1 5 -25 70 -52 145 -28 76 -53 137 -57 137 -3 0 -21 -42 -39 -92
-18 -51 -35 -99 -38 -105 -2 -8 4 -13 15 -13 15 0 24 14 38 55 11 30 22 55 25
55 3 0 16 -30 29 -67 13 -38 26 -74 29 -80 3 -10 -21 -13 -102 -13 -58 0 -106
3 -106 8 0 4 25 74 55 156 30 82 55 151 55 153 0 2 18 3 40 3 22 0 40 -1 40
-3 0 -2 45 -126 100 -277 55 -151 100 -275 100 -277 0 -2 -13 -3 -29 -3 -23 0
-30 6 -35 25 -4 14 -16 50 -27 81 l-21 54 -175 -2 -175 -3 -28 -75 c-48 -132
-50 -120 20 -120 l61 0 19 43 c24 51 25 67 4 67 -8 0 -22 -16 -30 -35 -11 -27
-20 -35 -39 -35 -14 0 -25 2 -25 4 0 2 10 29 21 60 l22 56 152 0 153 0 28 -80
27 -80 64 0 c62 0 64 1 57 23 -4 12 -55 155 -114 317 l-107 295 -62 3 c-43 2
-63 -1 -66 -10z"/>
<path d="M4100 1190 l0 -320 60 0 59 0 3 143 3 142 93 -125 c51 -69 98 -133
105 -143 10 -15 24 -18 85 -15 l73 3 -110 150 c-61 82 -111 153 -111 157 0 4
11 10 25 14 39 10 65 54 65 112 0 45 -4 53 -35 81 -35 30 -39 31 -130 31 l-95
0 0 -75 c0 -60 3 -75 15 -75 12 0 15 13 15 60 l0 60 53 0 c103 0 146 -26 147
-88 0 -48 -37 -82 -90 -82 -22 0 -40 -2 -40 -5 0 -3 40 -59 88 -123 48 -64 98
-132 111 -149 l22 -33 -30 0 c-29 0 -41 13 -146 155 -63 85 -122 155 -130 155
-13 0 -15 -24 -15 -155 l0 -155 -30 0 -30 0 0 281 0 281 133 -4 c152 -4 186
-16 224 -84 36 -62 26 -141 -23 -195 -13 -14 -24 -30 -24 -37 0 -19 25 -14 47
11 81 87 68 236 -26 301 -46 33 -122 46 -258 46 l-103 0 0 -320z"/>
<path d="M4698 1504 c-5 -4 -8 -13 -8 -21 0 -10 27 -13 123 -13 186 0 240 -23
292 -125 27 -52 30 -68 30 -149 0 -139 -41 -216 -140 -262 -43 -20 -65 -24
-157 -24 l-108 0 0 241 0 241 109 -4 c92 -3 114 -7 138 -24 51 -38 68 -80 68
-169 0 -137 -47 -196 -162 -203 l-63 -4 0 176 c0 169 -1 176 -20 176 -19 0
-20 -7 -20 -190 l0 -190 77 0 c100 0 153 24 189 86 48 82 47 223 -1 296 -42
64 -84 78 -230 78 l-125 0 0 -276 0 -277 128 6 c70 3 144 10 164 17 61 18 120
70 153 135 25 49 31 73 33 146 6 127 -15 189 -83 256 -31 30 -69 56 -92 63
-45 14 -285 26 -295 14z"/>
<path d="M5790 1501 c0 -13 203 -381 210 -381 3 0 48 79 100 175 87 161 97
175 123 175 15 0 27 -2 27 -6 0 -3 -38 -74 -85 -159 l-85 -153 0 -121 0 -121
-30 0 -30 0 0 75 c0 60 -3 75 -15 75 -12 0 -15 -17 -15 -95 l0 -95 60 0 60 0
0 131 0 131 100 183 c55 101 100 186 100 189 0 4 -30 6 -67 4 l-68 -3 -85
-157 c-47 -87 -87 -157 -90 -158 -6 0 -150 263 -150 274 0 4 12 6 27 4 23 -2
35 -16 73 -85 24 -46 47 -83 51 -83 23 0 12 40 -30 117 l-49 88 -66 3 c-39 2
-66 -1 -66 -7z"/>
<path d="M6427 1503 c-4 -3 -7 -148 -7 -320 l0 -314 63 3 62 3 3 147 c2 131 0
152 -17 185 l-20 38 -1 -167 0 -168 -25 0 -25 0 0 257 c0 145 4 253 9 248 4
-6 79 -131 166 -278 l157 -268 67 3 66 3 0 315 0 315 -60 0 -60 0 -3 -204 -2
-205 -120 205 c-89 150 -126 205 -141 207 -12 2 -20 0 -18 -5 2 -5 74 -128
159 -273 l155 -263 3 251 2 252 25 0 25 0 0 -281 0 -280 -42 3 -42 3 -176 297
c-96 164 -180 298 -186 298 -6 0 -14 -3 -17 -7z"/>
</g>
</svg>
